<?xml version="1.0" encoding="utf-8"?>
<svg version="1.1" xmlns:xlink="http://www.w3.org/1999/xlink" width="8px" height="8px" xmlns="http://www.w3.org/2000/svg">
  <g transform="matrix(1 0 0 1 -979 -603 )">
    <path d="M 983 603  C 985.24 603  987 604.76  987 607  C 987 609.24  985.24 611  983 611  C 980.76 611  979 609.24  979 607  C 979 604.76  980.76 603  983 603  Z " fill-rule="nonzero" fill="#f3f3f3" stroke="none" />
    <path d="M 983 603.5  C 984.96 603.5  986.5 605.04  986.5 607  C 986.5 608.96  984.96 610.5  983 610.5  C 981.04 610.5  979.5 608.96  979.5 607  C 979.5 605.04  981.04 603.5  983 603.5  Z " stroke-width="1" stroke="#f3f3f3" fill="none" />
  </g>
</svg>