<?xml version="1.0" encoding="utf-8"?>
<svg version="1.1" xmlns:xlink="http://www.w3.org/1999/xlink" width="170px" height="170px" xmlns="http://www.w3.org/2000/svg">
  <g transform="matrix(1 0 0 1 -382 -181 )">
    <path d="M 467 181  C 514.6 181  552 218.4  552 266  C 552 313.6  514.6 351  467 351  C 419.4 351  382 313.6  382 266  C 382 218.4  419.4 181  467 181  Z " fill-rule="nonzero" fill="#ffffff" stroke="none" />
    <path d="M 467 181.5  C 514.32 181.5  551.5 218.68  551.5 266  C 551.5 313.32  514.32 350.5  467 350.5  C 419.68 350.5  382.5 313.32  382.5 266  C 382.5 218.68  419.68 181.5  467 181.5  Z " stroke-width="1" stroke="#797979" fill="none" />
  </g>
</svg>